<svg t="1659256036141" class="icon" viewBox="0 0 1024 1024" version="1.1" xmlns="http://www.w3.org/2000/svg" p-id="1497" width="200" height="200"><path d="M466.346667 87.253333c-23.338667 15.616-137.386667 91.306667-253.354667 168.32C96.938667 332.544 2.133333 396.202667 2.133333 396.970667c0 0.810667 5.802667 4.693333 13.013334 8.533333 7.125333 4.096 121.6 67.541333 254.506666 141.226667l241.322667 134.101333 6.144-3.157333c3.498667-1.706667 92.544-52.565333 198.058667-112.725334l191.701333-109.568 1.152 339.072h113.834667V397.610667l-147.626667-98.986667c-198.997333-133.290667-358.058667-238.336-361.984-239.189333-1.92-0.341333-22.485333 12.245333-45.909333 27.818666M228.48 709.674667l0.597333 85.546666 141.226667 84.778667 141.226667 84.565333 142.378666-85.333333 142.165334-85.546667V709.12c0-46.592-0.554667-84.608-1.152-84.608s-56.234667 33.365333-123.733334 74.282667l-141.056 85.162666-18.389333 10.922667-56.32-33.749333a25775.786667 25775.786667 0 0 1-140.202667-84.437334l-85.546666-51.626666c-1.024-0.341333-1.365333 37.674667-1.152 84.608" p-id="1498" fill="#2c2c2c"></path></svg>